#!OML:ASF E:\Steps\Project 1\Capture day 1\Session 2\Subject.ASF
:FULLY-SPECIFIED
:DEGREES
190
root -1.17331 17.964 20.9708 -155.777 -0.323778 178.261
lowerback -27.9561 -2.25977 -6.70276
upperback -1.36379 -1.46325 -0.0610124
thorax 13.4483 -1.3232 2.98048
lowerneck -2.18135 -6.51517 -0.0979455
upperneck 15.6345 -8.42927 2.24714
head 5.16345 -3.68337 0.307177
rclavicle 4.57205e-015 -1.63003e-014
rhumerus -39.7233 -17.1854 -77.7818
rradius 30.7918
rwrist -2.36635
rhand -6.84092 -57.7327
rfingers 7.12502
rthumb 19.0238 -86.8223
lclavicle 4.57205e-015 -1.63003e-014
lhumerus -28.5919 1.4495 83.4169
lradius 20.0263
lwrist -5.7361
lhand -23.0463 -12.2622
lfingers 7.12502
lthumb 3.39842 17.6905
rfemur -23.0109 5.63736 19.7926
rtibia 7.52259
rfoot -16.0526 -3.14702
rtoes -30.776
lfemur -22.711 -6.31002 -23.0575
ltibia 7.19953
lfoot -6.38575 -4.74926
ltoes -37.6404
191
root -1.17111 17.9669 20.9733 -155.783 -0.347221 178.337
lowerback -27.8954 -2.24907 -6.61503
upperback -1.7364 -1.48591 -0.126073
thorax 13.7635 -1.34597 3.03308
lowerneck -2.11419 -6.4778 -0.213686
upperneck 15.58 -8.38544 2.37265
head 5.14508 -3.66252 0.369225
rclavicle 1.68967e-015 3.97569e-015
rhumerus -39.7058 -17.0858 -77.8505
rradius 31.1196
rwrist -2.93239
rhand -6.66444 -58.8198
rfingers 7.12502
rthumb 19.1935 -87.8927
lclavicle 1.68967e-015 3.97569e-015
lhumerus -28.5908 1.55952 83.3855
lradius 20.0076
lwrist -5.79399
lhand -22.9312 -12.0534
lfingers 7.12502
lthumb 3.50952 17.8975
rfemur -23.0531 5.54251 19.9254
rtibia 7.56909
rfoot -15.9994 -3.11051
rtoes -31.1697
lfemur -22.757 -6.32419 -22.9261
ltibia 7.24301
lfoot -6.33144 -4.77138
ltoes -37.1149
192
root -1.16992 17.9667 20.9725 -155.749 -0.365898 178.419
lowerback -27.9956 -2.24522 -6.53805
upperback -1.36944 -1.50068 -0.0049298
thorax 13.4645 -1.33186 2.93707
lowerneck -2.1077 -6.45662 -0.251463
upperneck 15.5452 -8.35532 2.36514
head 5.13401 -3.65276 0.37512
rclavicle 4.96962e-015 3.18055e-015
rhumerus -39.6846 -17.098 -77.8345
rradius 31.1659
rwrist -3.13338
rhand -6.75949 -58.4522
rfingers 7.12502
rthumb 19.1021 -87.5341
lclavicle 4.96962e-015 3.18055e-015
lhumerus -28.5851 1.58919 83.3843
lradius 20.0124
lwrist -5.75831
lhand -22.8527 -12.0722
lfingers 7.12502
lthumb 3.58539 17.8774
rfemur -23.106 5.53597 20.0562
rtibia 7.57961
rfoot -15.9566 -3.27187
rtoes -32.6773
lfemur -22.8136 -6.37842 -22.7773
ltibia 7.22156
lfoot -6.24423 -4.76057
ltoes -36.3854
193
root -1.16788 17.9685 20.9715 -155.808 -0.397017 178.415
lowerback -27.9448 -2.28544 -6.57523
upperback -1.34967 -1.54464 0.0389252
thorax 13.4704 -1.35327 2.98976
lowerneck -2.08893 -6.40114 -0.308779
upperneck 15.4809 -8.27107 2.30041
head 5.10922 -3.62329 0.370252
rclavicle -3.67752e-015 1.98785e-014
rhumerus -39.5865 -16.9834 -77.8204
rradius 31.1214
rwrist -3.09354
rhand -6.75726 -58.5658
rfingers 7.12502
rthumb 19.1043 -87.6475
lclavicle -3.67752e-015 1.98785e-014
lhumerus -28.5702 1.66304 83.4166
lradius 19.9928
lwrist -5.78596
lhand -22.7112 -12.4211
lfingers 7.12502
lthumb 3.72194 17.5261
rfemur -23.0358 5.68017 20.0577
rtibia 7.5911
rfoot -15.9851 -3.55134
rtoes -33.5061
lfemur -22.7427 -6.39139 -22.7672
ltibia 7.19929
lfoot -6.18599 -4.7814
ltoes -35.8445
194
root -1.16654 17.9709 20.9724 -155.844 -0.418776 178.407
lowerback -27.9078 -2.29701 -6.58459
upperback -1.33547 -1.55556 0.0392203
thorax 13.4709 -1.35764 2.99219
lowerneck -2.08476 -6.4488 -0.266458
upperneck 15.6302 -8.31909 2.22196
head 5.15027 -3.64113 0.335376
rclavicle 3.67752e-015 7.95139e-015
rhumerus -39.4558 -16.9953 -77.8362
rradius 30.9679
rwrist -3.02114
rhand -6.6672 -59.1409
rfingers 7.12502
rthumb 19.1909 -88.214
lclavicle 3.67752e-015 7.95139e-015
lhumerus -28.5495 1.65661 83.4205
lradius 19.9764
lwrist -5.78564
lhand -22.5633 -12.7013
lfingers 7.12502
lthumb 3.86478 17.2434
rfemur -23.0096 5.85241 20.0117
rtibia 7.61646
rfoot -16.0026 -3.66114
rtoes -32.7816
lfemur -22.7101 -6.39038 -22.7767
ltibia 7.24853
lfoot -6.25786 -4.76065
ltoes -36.1517
195
root -1.16727 17.9718 20.972 -155.856 -0.423839 178.393
lowerback -27.8716 -2.27456 -6.54192
upperback -1.69115 -1.5378 -0.0871099
thorax 13.8102 -1.36427 3.01625
lowerneck -2.02108 -6.5305 -0.243587
upperneck 15.7441 -8.42373 2.25232
head 5.17676 -3.6813 0.336407
rclavicle 3.57812e-015 -2.38542e-015
rhumerus -39.4105 -17.0775 -77.8736
rradius 30.9191
rwrist -2.96594
rhand -6.66537 -59.0434
rfingers 7.12502
rthumb 19.1926 -88.1164
lclavicle 3.57812e-015 -2.38542e-015
lhumerus -28.5485 1.50779 83.428
lradius 20.0232
lwrist -5.55181
lhand -22.414 -12.6906
lfingers 7.12502
lthumb 4.00898 17.2514
rfemur -22.9995 5.90549 19.9628
rtibia 7.62547
rfoot -16.1147 -3.61403
rtoes -31.8833
lfemur -22.6826 -6.38327 -22.8106
ltibia 7.29115
lfoot -6.3737 -4.74721
ltoes -37.1716
